<svg xmlns="http://www.w3.org/2000/svg" viewBox="0 0 1000 150" width="1000" height="150" role="img" aria-label="A pixel dinosaur runs and jumps over cacti labelled endogeneity, weak instruments, pre-trends and p-hacking">
<style>
    @keyframes walk{0%{transform:translateX(1050px)}33.333%,100%{transform:translateX(-150px)}}
    @keyframes jump{0%,6.67%{transform:translateY(0);animation-timing-function:cubic-bezier(.2,.7,.4,1)}20%{transform:translateY(-48px);animation-timing-function:cubic-bezier(.6,0,.8,.3)}33.33%,100%{transform:translateY(0)}}
    @keyframes scroll{to{transform:translateX(-1000px)}}
    @keyframes legA{0%,49%{opacity:1}50%,100%{opacity:0}}
    @keyframes legB{0%,49%{opacity:0}50%,100%{opacity:1}}
    .ob{transform:translateX(1050px);animation:walk 12s linear infinite backwards}
    .dino{animation:jump 3s linear infinite}
    .la{animation:legA .22s steps(1) infinite}
    .lb{opacity:0;animation:legB .22s steps(1) infinite}
    .gr{animation:scroll 3.3333s linear infinite}
    .ob0{animation-delay:0.55s}.ob1{animation-delay:3.55s}.ob2{animation-delay:6.55s}.ob3{animation-delay:9.55s}
    @media (prefers-reduced-motion:reduce){*{animation:none!important}.ob1{transform:translateX(560px)}}</style>
<defs><clipPath id="v"><rect width="1000" height="150"/></clipPath>
<linearGradient id="f" x1="0" x2="1"><stop offset="0" stop-color="#9AA7B7" stop-opacity="0"/><stop offset=".12" stop-color="#9AA7B7"/><stop offset=".88" stop-color="#9AA7B7"/><stop offset="1" stop-color="#9AA7B7" stop-opacity="0"/></linearGradient>
<linearGradient id="m" x1="0" x2="1"><stop offset="0" stop-color="#fff" stop-opacity="0"/><stop offset=".1" stop-color="#fff"/><stop offset=".9" stop-color="#fff"/><stop offset="1" stop-color="#fff" stop-opacity="0"/></linearGradient>
<mask id="fade"><rect width="1000" height="150" fill="url(#m)"/></mask></defs>
<g clip-path="url(#v)" mask="url(#fade)">
  <rect x="0" y="112" width="1000" height="1.5" fill="#9AA7B7"/>
  <g class="gr" fill="#9AA7B7"><rect x="40" y="117" width="10" height="1.5"/><rect x="150" y="120" width="4" height="1.5"/><rect x="270" y="116" width="6" height="1.5"/><rect x="390" y="121" width="12" height="1.5"/><rect x="520" y="117" width="4" height="1.5"/><rect x="610" y="120" width="8" height="1.5"/><rect x="760" y="116" width="5" height="1.5"/><rect x="880" y="121" width="10" height="1.5"/><rect x="960" y="118" width="4" height="1.5"/><g transform="translate(1000,0)"><rect x="40" y="117" width="10" height="1.5"/><rect x="150" y="120" width="4" height="1.5"/><rect x="270" y="116" width="6" height="1.5"/><rect x="390" y="121" width="12" height="1.5"/><rect x="520" y="117" width="4" height="1.5"/><rect x="610" y="120" width="8" height="1.5"/><rect x="760" y="116" width="5" height="1.5"/><rect x="880" y="121" width="10" height="1.5"/><rect x="960" y="118" width="4" height="1.5"/></g></g>
  <g font-family="ui-monospace,SFMono-Regular,'SF Mono',Menlo,Consolas,'Liberation Mono',monospace" font-size="11.5" fill="#57667A"><g class="ob ob0"><g transform="translate(0,79)"><g fill="#9AA7B7" shape-rendering="crispEdges"><rect x="9" y="0" width="6" height="3"/><rect x="9" y="3" width="6" height="3"/><rect x="21" y="3" width="3" height="3"/><rect x="0" y="6" width="3" height="3"/><rect x="9" y="6" width="6" height="3"/><rect x="21" y="6" width="3" height="3"/><rect x="0" y="9" width="3" height="3"/><rect x="9" y="9" width="6" height="3"/><rect x="21" y="9" width="3" height="3"/><rect x="0" y="12" width="3" height="3"/><rect x="9" y="12" width="6" height="3"/><rect x="18" y="12" width="6" height="3"/><rect x="0" y="15" width="6" height="3"/><rect x="9" y="15" width="12" height="3"/><rect x="3" y="18" width="12" height="3"/><rect x="9" y="21" width="6" height="3"/><rect x="9" y="24" width="6" height="3"/><rect x="9" y="27" width="6" height="3"/><rect x="9" y="30" width="6" height="3"/></g></g><text x="12" y="132" text-anchor="middle">endogeneity</text></g><g class="ob ob1"><g transform="translate(0,79)"><g fill="#9AA7B7" shape-rendering="crispEdges"><rect x="9" y="0" width="6" height="3"/><rect x="9" y="3" width="6" height="3"/><rect x="21" y="3" width="3" height="3"/><rect x="0" y="6" width="3" height="3"/><rect x="9" y="6" width="6" height="3"/><rect x="21" y="6" width="3" height="3"/><rect x="0" y="9" width="3" height="3"/><rect x="9" y="9" width="6" height="3"/><rect x="21" y="9" width="3" height="3"/><rect x="0" y="12" width="3" height="3"/><rect x="9" y="12" width="6" height="3"/><rect x="18" y="12" width="6" height="3"/><rect x="0" y="15" width="6" height="3"/><rect x="9" y="15" width="12" height="3"/><rect x="3" y="18" width="12" height="3"/><rect x="9" y="21" width="6" height="3"/><rect x="9" y="24" width="6" height="3"/><rect x="9" y="27" width="6" height="3"/><rect x="9" y="30" width="6" height="3"/></g></g><text x="12" y="132" text-anchor="middle">weak instruments</text></g><g class="ob ob2"><g transform="translate(0,79)"><g fill="#9AA7B7" shape-rendering="crispEdges"><rect x="9" y="0" width="6" height="3"/><rect x="9" y="3" width="6" height="3"/><rect x="21" y="3" width="3" height="3"/><rect x="0" y="6" width="3" height="3"/><rect x="9" y="6" width="6" height="3"/><rect x="21" y="6" width="3" height="3"/><rect x="0" y="9" width="3" height="3"/><rect x="9" y="9" width="6" height="3"/><rect x="21" y="9" width="3" height="3"/><rect x="0" y="12" width="3" height="3"/><rect x="9" y="12" width="6" height="3"/><rect x="18" y="12" width="6" height="3"/><rect x="0" y="15" width="6" height="3"/><rect x="9" y="15" width="12" height="3"/><rect x="3" y="18" width="12" height="3"/><rect x="9" y="21" width="6" height="3"/><rect x="9" y="24" width="6" height="3"/><rect x="9" y="27" width="6" height="3"/><rect x="9" y="30" width="6" height="3"/></g></g><text x="12" y="132" text-anchor="middle">pre-trends</text></g><g class="ob ob3"><g transform="translate(0,79)"><g fill="#9AA7B7" shape-rendering="crispEdges"><rect x="9" y="0" width="6" height="3"/><rect x="9" y="3" width="6" height="3"/><rect x="21" y="3" width="3" height="3"/><rect x="0" y="6" width="3" height="3"/><rect x="9" y="6" width="6" height="3"/><rect x="21" y="6" width="3" height="3"/><rect x="0" y="9" width="3" height="3"/><rect x="9" y="9" width="6" height="3"/><rect x="21" y="9" width="3" height="3"/><rect x="0" y="12" width="3" height="3"/><rect x="9" y="12" width="6" height="3"/><rect x="18" y="12" width="6" height="3"/><rect x="0" y="15" width="6" height="3"/><rect x="9" y="15" width="12" height="3"/><rect x="3" y="18" width="12" height="3"/><rect x="9" y="21" width="6" height="3"/><rect x="9" y="24" width="6" height="3"/><rect x="9" y="27" width="6" height="3"/><rect x="9" y="30" width="6" height="3"/></g></g><text x="12" y="132" text-anchor="middle">p-hacking</text></g></g>
  <g transform="translate(120,58.0)"><g class="dino">
    <g fill="#475569" shape-rendering="crispEdges"><rect x="30.0" y="0.0" width="22.5" height="2.5"/><rect x="27.5" y="2.5" width="27.5" height="2.5"/><rect x="27.5" y="5.0" width="5.0" height="2.5"/><rect x="35.0" y="5.0" width="20.0" height="2.5"/><rect x="27.5" y="7.5" width="27.5" height="2.5"/><rect x="27.5" y="10.0" width="27.5" height="2.5"/><rect x="27.5" y="12.5" width="27.5" height="2.5"/><rect x="27.5" y="15.0" width="15.0" height="2.5"/><rect x="27.5" y="17.5" width="22.5" height="2.5"/><rect x="0.0" y="20.0" width="2.5" height="2.5"/><rect x="25.0" y="20.0" width="15.0" height="2.5"/><rect x="0.0" y="22.5" width="2.5" height="2.5"/><rect x="22.5" y="22.5" width="17.5" height="2.5"/><rect x="0.0" y="25.0" width="5.0" height="2.5"/><rect x="20.0" y="25.0" width="27.5" height="2.5"/><rect x="0.0" y="27.5" width="7.5" height="2.5"/><rect x="17.5" y="27.5" width="22.5" height="2.5"/><rect x="45.0" y="27.5" width="2.5" height="2.5"/><rect x="0.0" y="30.0" width="40.0" height="2.5"/><rect x="0.0" y="32.5" width="40.0" height="2.5"/><rect x="2.5" y="35.0" width="35.0" height="2.5"/><rect x="5.0" y="37.5" width="30.0" height="2.5"/><rect x="7.5" y="40.0" width="25.0" height="2.5"/><rect x="10.0" y="42.5" width="20.0" height="2.5"/></g>
    <g class="la" transform="translate(0,45.0)"><g fill="#475569" shape-rendering="crispEdges"><rect x="12.5" y="0.0" width="7.5" height="2.5"/><rect x="22.5" y="0.0" width="5.0" height="2.5"/><rect x="12.5" y="2.5" width="5.0" height="2.5"/><rect x="25.0" y="2.5" width="2.5" height="2.5"/><rect x="12.5" y="5.0" width="2.5" height="2.5"/><rect x="25.0" y="5.0" width="5.0" height="2.5"/><rect x="12.5" y="7.5" width="5.0" height="2.5"/></g></g>
    <g class="lb" transform="translate(0,45.0)"><g fill="#475569" shape-rendering="crispEdges"><rect x="12.5" y="0.0" width="7.5" height="2.5"/><rect x="22.5" y="0.0" width="5.0" height="2.5"/><rect x="12.5" y="2.5" width="5.0" height="2.5"/><rect x="25.0" y="2.5" width="2.5" height="2.5"/><rect x="12.5" y="5.0" width="5.0" height="2.5"/><rect x="25.0" y="5.0" width="2.5" height="2.5"/><rect x="25.0" y="7.5" width="5.0" height="2.5"/></g></g>
  </g></g>
</g>
<text x="890" y="28" text-anchor="end" font-family="ui-monospace,SFMono-Regular,'SF Mono',Menlo,Consolas,'Liberation Mono',monospace" font-size="13" fill="#57667A" letter-spacing="1">HI 06592</text>
<text x="890" y="44" text-anchor="end" font-family="ui-monospace,SFMono-Regular,'SF Mono',Menlo,Consolas,'Liberation Mono',monospace" font-size="10.5" fill="#B4BECB">total GitHub stars</text>
</svg>
